<?xml version="1.0" standalone="no"?>
<!DOCTYPE svg PUBLIC "-//W3C//DTD SVG 20010904//EN"
 "http://www.w3.org/TR/2001/REC-SVG-20010904/DTD/svg10.dtd">
<svg version="1.0" xmlns="http://www.w3.org/2000/svg"
 width="500.000000pt" height="500.000000pt" viewBox="0 0 500.000000 500.000000"
 preserveAspectRatio="xMidYMid meet">

<g transform="translate(0.000000,500.000000) scale(0.100000,-0.100000)"
fill="#fff" stroke="none">
<path d="M2240 4425 c-713 -98 -1304 -568 -1565 -1243 -38 -100 -89 -295 -105
-407 -29 -207 -21 -458 21 -665 154 -750 754 -1355 1500 -1510 284 -58 586
-53 864 14 590 144 1088 568 1325 1130 167 392 198 840 90 1253 -119 448 -411
856 -800 1117 -188 127 -461 241 -677 285 -208 43 -460 52 -653 26z m583 -39
c752 -141 1346 -697 1526 -1428 43 -176 54 -270 54 -463 0 -191 -17 -318 -63
-493 -177 -661 -714 -1191 -1377 -1356 -290 -73 -630 -75 -917 -7 -335 80
-660 263 -906 511 -571 574 -721 1440 -376 2165 284 596 831 992 1496 1085
102 14 461 5 563 -14z"/>
<path d="M2392 4231 c76 -8 109 -39 115 -108 6 -62 -16 -109 -60 -128 -21 -9
-25 -14 -14 -15 28 0 72 29 91 60 9 16 16 47 16 70 0 88 -52 131 -152 129
l-53 -2 57 -6z"/>
<path d="M2586 4158 c-4 -46 -9 -104 -12 -130 -5 -38 -3 -48 9 -48 14 0 27 46
27 103 0 15 6 27 13 27 9 0 9 2 0 8 -9 5 -11 24 -6 59 5 42 10 53 27 56 12 2
5 5 -15 6 l-37 1 -6 -82z"/>
<path d="M2297 4133 c2 -54 6 -113 9 -130 5 -33 6 -33 57 -31 42 1 45 2 15 5
-45 5 -47 8 -49 146 -2 91 -5 107 -19 107 -14 0 -15 -13 -13 -97z"/>
<path d="M2756 4118 c-10 -57 -20 -115 -23 -130 -4 -21 -1 -28 9 -28 13 0 35
70 42 135 10 80 20 114 34 118 10 3 3 5 -13 6 l-30 1 -19 -102z"/>
<path d="M2232 4190 c0 -14 2 -19 5 -12 2 6 2 18 0 25 -3 6 -5 1 -5 -13z"/>
<path d="M2860 4197 c54 -27 30 -117 -32 -117 l-28 0 34 -69 c30 -59 50 -81
73 -81 3 0 -12 30 -32 66 -20 37 -35 67 -33 69 2 1 17 7 33 12 34 11 57 49 48
81 -5 22 -49 52 -75 52 -7 0 -2 -6 12 -13z"/>
<path d="M2028 4148 c3 -18 7 -28 9 -21 3 7 51 -23 118 -73 62 -46 116 -84
119 -84 3 0 6 9 6 20 0 11 -5 20 -10 20 -6 0 -61 38 -124 85 -62 47 -115 85
-118 85 -2 0 -2 -15 0 -32z"/>
<path d="M2242 4140 c0 -14 2 -19 5 -12 2 6 2 18 0 25 -3 6 -5 1 -5 -13z"/>
<path d="M1868 4133 c-24 -6 -23 -10 19 -140 28 -84 42 -113 54 -113 15 0 14
7 -7 65 -13 36 -23 66 -23 68 0 1 -4 15 -10 30 -22 56 -24 79 -10 88 15 9 6
10 -23 2z"/>
<path d="M2252 4090 c0 -14 2 -19 5 -12 2 6 2 18 0 25 -3 6 -5 1 -5 -13z"/>
<path d="M2678 4103 c7 -3 16 -2 19 1 4 3 -2 6 -13 5 -11 0 -14 -3 -6 -6z"/>
<path d="M3120 4003 c-58 -59 -84 -89 -59 -65 33 31 51 41 65 36 15 -5 16 -4
4 5 -12 8 -8 17 25 51 l40 41 5 -122 c3 -85 9 -124 18 -127 9 -3 12 30 12 142
0 80 -1 146 -3 146 -1 0 -50 -48 -107 -107z"/>
<path d="M1790 3986 l-5 -120 -86 77 c-81 72 -109 90 -109 68 0 -6 46 -51 103
-102 l102 -92 3 72 c2 39 1 104 0 144 -3 60 -4 52 -8 -47z"/>
<path d="M2041 4084 c0 -11 3 -14 6 -6 3 7 2 16 -1 19 -3 4 -6 -2 -5 -13z"/>
<path d="M2262 4040 c0 -14 2 -19 5 -12 2 6 2 18 0 25 -3 6 -5 1 -5 -13z"/>
<path d="M2051 4034 c0 -11 3 -14 6 -6 3 7 2 16 -1 19 -3 4 -6 -2 -5 -13z"/>
<path d="M1968 4033 c7 -3 16 -2 19 1 4 3 -2 6 -13 5 -11 0 -14 -3 -6 -6z"/>
<path d="M3354 3992 c-11 -20 -39 -71 -62 -113 -33 -59 -39 -78 -28 -82 9 -4
23 11 41 44 15 28 32 48 38 46 7 -2 17 -35 23 -73 5 -38 13 -75 18 -82 13 -22
28 -13 22 16 -3 15 -8 48 -12 74 l-6 48 30 -6 c24 -5 36 -1 56 19 14 15 26 33
26 42 0 21 -28 62 -48 70 -14 5 -14 4 1 -13 21 -23 22 -51 1 -80 -17 -25 -56
-29 -91 -9 l-22 12 30 53 c23 40 35 52 47 48 13 -5 13 -3 -2 9 -29 22 -39 19
-62 -23z"/>
<path d="M2061 3984 c0 -11 3 -14 6 -6 3 7 2 16 -1 19 -3 4 -6 -2 -5 -13z"/>
<path d="M2633 3973 c15 -2 37 -2 50 0 12 2 0 4 -28 4 -27 0 -38 -2 -22 -4z"/>
<path d="M3160 3960 c8 -5 20 -10 25 -10 6 0 3 5 -5 10 -8 5 -19 10 -25 10 -5
0 -3 -5 5 -10z"/>
<path d="M1446 3873 c8 -55 14 -68 14 -30 0 15 2 27 5 27 6 0 85 -51 85 -56 0
-4 -66 -44 -74 -44 -3 0 -7 10 -7 23 -1 12 -3 15 -5 7 -2 -8 0 -35 5 -60 7
-38 9 -40 10 -14 1 25 9 37 41 58 l39 26 51 -32 c34 -21 54 -28 61 -21 6 6
-29 35 -106 86 -63 42 -117 77 -121 77 -3 0 -2 -21 2 -47z"/>
<path d="M2285 3905 c-532 -87 -970 -459 -1135 -965 -53 -162 -65 -246 -64
-450 0 -163 3 -198 26 -296 64 -272 187 -496 380 -692 195 -198 431 -329 708
-393 113 -27 367 -36 493 -19 401 55 765 284 997 629 105 157 193 392 220 588
17 126 8 380 -19 493 -126 547 -537 960 -1080 1086 -137 32 -389 41 -526 19z
m480 -30 c592 -123 1028 -578 1122 -1170 19 -121 13 -371 -12 -485 -122 -559
-536 -973 -1095 -1095 -114 -25 -364 -31 -485 -12 -396 63 -743 284 -960 612
-100 152 -172 325 -212 515 -25 120 -25 401 1 520 60 282 176 505 365 702 223
233 486 371 806 423 115 18 359 13 470 -10z"/>
<path d="M1986 3493 c6 -4 14 -15 17 -23 5 -11 6 -9 4 4 -1 11 -9 21 -17 23
-10 3 -11 2 -4 -4z"/>
<path d="M1936 3473 c-3 -4 -6 -13 -6 -22 0 -13 2 -13 9 -2 5 7 14 10 20 7 16
-10 14 -26 -4 -26 -8 0 -12 -6 -9 -14 3 -8 0 -17 -6 -21 -8 -5 -7 -11 2 -22
10 -13 14 -10 24 18 l12 34 10 -25 c10 -23 11 -23 9 12 -1 20 -5 34 -9 31 -5
-2 -8 4 -8 14 0 18 -31 29 -44 16z"/>
<path d="M2630 3410 c0 -5 -7 -10 -15 -10 -9 0 -15 -9 -15 -22 0 -19 2 -20 10
-8 7 11 10 7 10 -17 0 -28 -4 -33 -23 -33 -13 0 -34 -11 -47 -25 -19 -21 -21
-25 -7 -30 8 -4 28 -5 44 -2 27 4 27 4 -5 6 -29 1 -32 3 -22 21 6 11 19 20 29
20 10 0 21 -9 24 -20 3 -11 10 -20 16 -20 6 0 11 9 11 20 0 11 5 20 10 20 6 0
9 -3 8 -7 -2 -5 0 -9 5 -10 18 -7 25 -1 20 17 -4 15 0 20 13 20 15 0 16 -2 5
-9 -8 -5 -9 -11 -3 -15 5 -3 15 1 23 10 10 13 9 16 -9 21 -17 4 -20 9 -12 23
17 31 12 52 -9 45 -11 -3 -22 -1 -26 5 -8 13 -35 13 -35 0z m27 -46 c-3 -20
-9 -39 -12 -42 -10 -10 -17 6 -9 20 5 7 7 23 5 36 -1 12 3 22 10 22 8 0 10
-11 6 -36z m37 12 c-6 -16 -24 -23 -24 -8 0 10 22 33 27 28 2 -2 1 -11 -3 -20z"/>
<path d="M1884 3399 c-3 -6 -1 -16 6 -22 10 -9 11 -9 6 1 -5 8 0 12 13 12 11
0 23 5 26 10 3 6 -5 10 -19 10 -14 0 -28 -5 -32 -11z"/>
<path d="M1893 3359 c-29 -11 -30 -49 -3 -74 19 -17 19 -20 4 -42 -8 -13 -14
-34 -12 -46 2 -14 -4 -26 -16 -32 -10 -5 -24 -18 -30 -28 -13 -20 5 -37 40
-37 13 0 24 -8 27 -20 3 -13 0 -20 -9 -20 -7 0 -18 -9 -24 -19 -13 -26 -13
-34 2 -25 7 5 9 2 6 -8 -4 -9 0 -15 9 -15 10 0 13 7 8 24 -3 13 -1 23 5 23 6
0 9 -3 7 -7 -2 -5 4 -16 15 -25 15 -15 18 -15 18 -3 0 8 6 12 13 9 15 -6 10
-84 -6 -84 -6 0 -25 12 -41 27 -21 19 -18 14 9 -17 22 -25 33 -39 25 -32 -21
18 -40 15 -40 -8 0 -13 -5 -18 -15 -14 -12 5 -15 -3 -15 -35 0 -39 -1 -40 -20
-29 -17 11 -22 11 -29 0 -5 -8 -12 1 -21 28 -17 51 -35 53 -26 3 3 -21 6 -45
6 -53 0 -13 1 -13 10 0 8 13 10 12 10 -2 0 -10 3 -18 8 -19 28 -3 47 -9 57
-21 10 -10 6 -19 -18 -43 -23 -23 -27 -25 -18 -8 6 12 11 30 11 40 0 15 -2 16
-10 3 -9 -13 -10 -13 -11 0 0 8 -4 4 -8 -10 -4 -14 -5 -48 -3 -77 3 -42 8 -54
24 -59 12 -4 24 -1 30 7 6 10 7 6 3 -11 -3 -14 1 -47 8 -75 l14 -50 -1 58 c0
38 -3 52 -8 40 -5 -11 -6 -5 -3 16 6 41 21 61 46 61 13 0 19 -9 22 -32 3 -29
4 -28 5 9 l2 42 40 -1 c29 0 40 -5 40 -15 0 -13 3 -13 15 -3 22 18 18 39 -8
49 -13 5 -24 16 -24 25 0 8 4 13 8 11 3 -3 9 4 12 14 4 15 1 18 -12 13 -13 -5
-14 -3 -3 10 15 18 52 30 52 17 0 -5 6 -9 14 -9 8 0 17 -8 19 -17 4 -15 5 -14
6 3 2 32 -44 49 -76 29 -13 -9 -27 -23 -30 -31 -3 -8 -13 -14 -23 -14 -10 0
-25 -10 -33 -22 l-16 -23 0 28 c-1 16 -5 26 -11 22 -5 -3 -15 5 -22 19 -6 14
-14 26 -18 26 -4 0 -2 16 4 35 6 19 15 35 19 35 5 0 5 -6 1 -12 -4 -7 2 -5 13
5 18 16 21 16 27 2 3 -8 3 -36 -1 -60 -5 -37 -3 -45 10 -45 16 0 30 15 33 38
1 6 -2 12 -7 12 -5 0 -9 -4 -9 -10 0 -5 -5 -10 -11 -10 -5 0 -7 5 -4 10 4 6 6
38 6 70 0 34 4 60 10 60 6 0 8 -3 6 -7 -3 -5 8 -8 24 -8 25 0 27 2 13 12 -14
11 -13 13 12 18 45 10 51 13 29 15 l-20 1 20 9 c20 9 20 9 0 9 -11 1 -32 -10
-47 -23 -14 -14 -29 -22 -32 -19 -11 11 -6 23 9 23 8 0 15 4 15 10 0 5 -6 8
-12 6 -7 -1 -10 -1 -5 1 4 3 5 8 3 12 -3 4 1 8 9 8 8 0 12 -4 9 -9 -3 -5 13
-6 36 -2 40 7 41 6 36 -21 -3 -15 -13 -37 -23 -48 -13 -14 -14 -19 -4 -15 8 2
24 17 35 31 26 35 13 61 -33 65 -31 3 -40 15 -21 27 16 10 12 63 -6 73 -14 8
-14 12 -3 30 11 17 11 24 1 34 -10 10 -14 10 -21 0 -10 -17 -22 -17 -32 -1 -9
15 8 42 21 34 5 -3 6 4 3 15 -4 15 -1 18 16 15 12 -2 19 0 16 6 -4 5 -1 9 4 9
6 0 11 -4 11 -8 0 -5 7 -9 17 -9 19 0 -40 57 -60 57 -6 0 -19 15 -27 32 -20
41 -48 59 -77 47z m67 -93 c0 -20 0 -20 -21 1 -15 14 -19 27 -15 40 7 17 8 17
22 -1 8 -11 14 -29 14 -40z m60 -7 c12 -9 11 -10 -8 -6 -14 3 -26 -1 -32 -11
-9 -16 -9 -16 -10 0 0 14 12 25 30 27 3 0 12 -4 20 -10z m-73 -11 c4 -7 8 -40
8 -74 l0 -61 -32 35 c-39 42 -39 43 -14 73 l20 24 -5 -25 c-4 -21 -3 -22 5 -5
5 12 5 25 -1 33 -7 8 -7 12 0 12 6 0 14 -6 19 -12z m-43 -104 c21 -21 12 -34
-25 -34 -18 0 -28 4 -24 10 3 6 0 10 -7 10 -9 1 25 27 39 30 1 0 9 -7 17 -16z
m116 -3 c0 -14 -28 -33 -39 -27 -16 10 -3 32 19 33 11 1 20 -2 20 -6z m-67
-43 c12 -7 31 -20 42 -28 18 -14 18 -13 7 1 -6 9 -9 19 -6 22 11 10 34 -20 34
-45 0 -18 -2 -20 -10 -8 -5 8 -10 10 -10 5 0 -6 -9 -16 -19 -22 -17 -11 -24
-8 -50 16 -17 16 -31 34 -31 41 0 17 20 1 30 -24 l9 -21 0 22 c1 12 -6 29 -15
37 -19 19 -12 20 19 4z m-83 -308 c12 -16 19 -30 15 -30 -15 0 -55 34 -55 46
0 23 17 16 40 -16z m47 -67 c0 -9 -4 -10 -13 -2 -7 6 -14 6 -18 1 -6 -10 22
-27 37 -23 5 1 5 -3 2 -9 -4 -6 -13 -9 -21 -6 -7 3 -16 1 -19 -4 -4 -6 -12
-10 -18 -10 -7 0 -6 4 3 10 12 8 12 10 -3 15 -15 6 -15 9 5 24 25 21 45 23 45
4z m56 -20 c-22 -17 -27 -10 -13 17 10 18 14 20 21 9 6 -9 3 -18 -8 -26z m77
-29 c0 -12 -3 -14 -12 -6 -7 6 -26 12 -43 15 -24 3 -22 4 13 6 33 1 42 -3 42
-15z m-141 -8 c-14 -13 -70 -36 -64 -26 4 6 17 15 29 20 22 9 42 13 35 6z"/>
<path d="M1971 3361 c-11 -7 -10 -13 4 -35 18 -27 31 -36 20 -13 -4 6 1 3 9
-7 16 -19 16 -19 16 2 0 15 -6 22 -19 22 -14 0 -18 5 -14 20 6 22 4 24 -16 11z"/>
<path d="M2593 3226 c3 -12 8 -31 12 -43 5 -15 1 -27 -14 -39 -12 -10 -21 -24
-21 -31 0 -21 -16 -15 -30 12 -7 14 -17 25 -22 25 -12 0 -10 -14 3 -27 9 -9 8
-11 -2 -10 -8 2 -19 6 -25 9 -6 4 -27 2 -47 -4 -39 -12 -50 -41 -21 -52 15 -6
15 -4 3 10 -13 16 -11 17 18 11 27 -5 31 -4 27 11 -5 15 -4 15 6 -1 6 -9 8
-27 5 -40 -5 -18 -4 -19 5 -7 10 13 11 13 7 0 -2 -9 -16 -15 -35 -15 -16 0
-28 -3 -25 -7 2 -5 17 -8 32 -8 18 0 34 -9 48 -28 19 -26 19 -30 6 -56 -15
-29 -12 -43 6 -31 6 3 9 10 6 15 -3 5 3 14 14 20 40 21 29 -9 -21 -54 -45 -43
-50 -45 -46 -23 3 17 1 24 -8 20 -6 -2 -14 -20 -16 -39 -5 -41 7 -67 16 -37 9
27 102 49 103 24 0 -9 -5 -22 -11 -30 -9 -11 -8 -13 4 -9 9 3 15 18 16 36 0
17 6 38 13 46 10 12 10 20 3 29 -7 8 -7 18 -2 27 14 21 12 28 -7 33 -15 4 -14
5 3 6 11 0 25 -4 31 -10 15 -15 33 -3 33 23 0 29 -28 58 -48 51 -10 -4 -13 -2
-8 6 4 6 15 10 24 9 10 -2 17 4 17 12 0 8 -11 17 -24 18 -14 2 -21 0 -17 -6 4
-6 1 -14 -5 -18 -8 -5 -9 -3 -4 6 6 10 3 12 -11 7 -10 -4 2 13 29 36 57 52 61
75 12 68 -5 -1 -3 5 5 12 8 7 20 21 26 32 12 21 30 19 27 -4 -1 -11 2 -10 14
2 24 24 7 36 -53 35 -51 -2 -55 -3 -51 -22z m25 -96 c-7 -11 -17 -20 -22 -20
-5 0 -1 9 9 20 10 11 20 20 22 20 2 0 -2 -9 -9 -20z m-103 -40 c3 -5 1 -10 -4
-10 -6 0 -11 5 -11 10 0 6 2 10 4 10 3 0 8 -4 11 -10z m19 -70 c7 -24 6 -24
-8 -6 -9 11 -16 27 -16 35 0 21 16 2 24 -29z m99 -7 c-7 -2 -21 -2 -30 0 -10
3 -4 5 12 5 17 0 24 -2 18 -5z m-37 -25 c-10 -6 -22 -6 -26 -2 -5 5 3 10 18
11 22 1 24 0 8 -9z m-11 -117 c-12 -10 -75 -32 -75 -26 0 2 12 11 28 19 30 17
62 22 47 7z"/>
<path d="M2035 3199 c7 -11 35 -12 35 -1 0 4 -9 8 -20 9 -11 1 -18 -2 -15 -8z"/>
<path d="M2530 3185 c0 -8 7 -15 16 -15 9 0 12 5 8 12 -5 8 -2 9 10 5 10 -4
15 -3 11 3 -10 16 -45 12 -45 -5z"/>
<path d="M2469 2969 c-10 -19 -9 -21 4 -16 10 4 17 -1 20 -11 3 -10 5 -6 6 10
1 35 -15 44 -30 17z"/>
<path d="M3222 2953 c2 -19 8 -27 18 -24 8 2 23 4 32 5 14 0 15 3 5 15 -10 12
-9 14 6 8 11 -4 17 -2 17 8 0 20 -27 19 -38 -1 -8 -15 -10 -15 -15 0 -10 26
-29 18 -25 -11z m15 -15 c-3 -7 -5 -2 -5 12 0 14 2 19 5 13 2 -7 2 -19 0 -25z"/>
<path d="M2243 2892 c-26 -65 -28 -86 -23 -197 l3 -80 7 115 c4 67 14 135 24
163 25 69 15 68 -11 -1z"/>
<path d="M2424 2925 c-4 -8 -11 -12 -18 -8 -6 4 -5 -1 3 -11 13 -15 13 -19 0
-27 -12 -7 -12 -9 1 -9 16 0 50 33 50 49 0 16 -31 21 -36 6z"/>
<path d="M2365 2920 c-3 -6 1 -7 9 -4 18 7 21 14 7 14 -6 0 -13 -4 -16 -10z"/>
<path d="M3246 2891 c-15 -16 -28 -32 -27 -35 3 -18 -15 -3 -19 16 -5 21 -40
40 -40 21 0 -4 -5 -15 -10 -23 -8 -13 -11 -12 -23 4 -26 36 -68 -7 -66 -67 0
-17 4 -14 14 13 7 19 14 27 14 18 1 -10 6 -18 11 -18 6 0 10 8 11 18 1 11 4 9
9 -8 4 -14 8 -20 9 -13 1 7 12 23 25 36 20 20 26 22 30 10 4 -9 2 -11 -6 -7
-8 5 -9 2 -4 -11 5 -13 -2 -26 -25 -47 l-32 -30 29 -17 c16 -10 32 -16 37 -14
13 8 7 33 -8 33 -8 0 -15 4 -15 9 0 13 25 20 52 15 18 -4 16 -2 -7 9 -36 16
-22 28 29 25 32 -3 34 -5 19 -15 -9 -7 -12 -13 -6 -13 33 0 38 60 4 60 -12 1
-9 7 13 26 27 24 29 24 49 7 11 -10 17 -12 13 -5 -4 7 -1 12 8 12 9 0 16 5 16
10 0 6 -17 10 -38 10 -29 0 -45 -7 -66 -29z"/>
<path d="M1974 2889 c-5 -8 -3 -9 6 -4 7 4 16 2 22 -6 8 -12 9 -12 6 0 -6 20
-24 25 -34 10z"/>
<path d="M1987 2839 c-4 -16 -3 -18 9 -8 7 6 11 15 8 20 -8 13 -11 11 -17 -12z"/>
<path d="M2027 2845 c3 -9 -1 -24 -8 -33 -8 -10 -4 -7 9 6 25 27 28 42 7 42
-9 0 -12 -6 -8 -15z"/>
<path d="M2389 2843 c-1 -5 -3 -19 -4 -32 -2 -22 -1 -23 10 -7 12 15 14 15 29
1 20 -21 21 -6 0 23 -15 22 -33 29 -35 15z"/>
<path d="M2916 2815 c-3 -8 -1 -14 5 -12 6 1 16 -6 22 -15 9 -14 9 -23 -1 -39
-18 -28 -11 -32 29 -15 19 7 40 11 47 9 17 -6 15 12 -3 27 -13 10 -19 9 -37
-6 -21 -19 -21 -19 -14 9 10 44 -33 81 -48 42z"/>
<path d="M2599 2783 c-35 -43 -59 -83 -59 -98 0 -9 -4 -14 -9 -10 -5 3 -13 0
-17 -6 -5 -8 -3 -9 6 -4 8 5 11 3 8 -6 -3 -8 -10 -14 -15 -14 -6 0 -15 -4 -20
-9 -5 -5 -2 -6 6 -1 9 5 12 3 9 -6 -3 -8 -10 -13 -16 -12 -7 2 -9 -4 -5 -14 4
-10 2 -14 -5 -9 -6 3 -13 3 -16 -2 -3 -5 2 -9 10 -9 8 0 33 30 56 66 22 36 44
68 48 71 11 8 42 71 37 76 -2 2 -10 -4 -18 -13z"/>
<path d="M2757 2793 c-10 -10 -8 -41 3 -48 5 -3 7 0 4 8 -3 8 -1 18 5 22 6 3
11 10 11 16 0 10 -14 12 -23 2z"/>
<path d="M2458 2770 c-31 -17 -38 -18 -48 -5 -13 16 -34 10 -25 -6 4 -5 -1 -9
-10 -9 -11 0 -15 5 -11 15 6 16 -18 20 -48 9 -34 -13 -12 -56 27 -53 7 0 3 4
-8 9 -13 5 -2 7 34 6 58 -3 62 -6 76 -70 l6 -29 47 47 c44 44 46 48 29 61 -12
8 -14 15 -8 20 17 10 13 25 -6 25 -10 -1 -34 -10 -55 -20z m37 0 c-3 -5 -12
-10 -18 -10 -7 0 -6 4 3 10 19 12 23 12 15 0z m14 -51 c-13 -9 -28 -15 -33
-11 -6 3 -5 7 2 10 7 2 12 10 12 17 0 8 7 11 21 8 22 -6 22 -6 -2 -24z m-48
-52 c-8 -8 -11 -3 -11 19 1 25 2 27 11 11 8 -14 8 -22 0 -30z"/>
<path d="M1792 2750 c0 -14 2 -19 5 -12 2 6 2 18 0 25 -3 6 -5 1 -5 -13z"/>
<path d="M3060 2742 c0 -9 -8 -24 -17 -35 -17 -19 -17 -20 0 -14 11 4 16 3 12
-3 -3 -6 1 -10 10 -10 10 0 15 6 12 13 -4 10 2 13 19 9 23 -4 23 -5 7 -18 -16
-12 -13 -13 25 -14 40 0 54 11 31 25 -6 4 -8 13 -5 20 7 20 -22 39 -60 40 -24
1 -34 -3 -34 -13z m88 -18 c2 -1 -8 -1 -21 0 -15 0 -23 6 -20 14 4 10 9 10 22
0 9 -7 17 -13 19 -14z"/>
<path d="M2202 2720 c0 -19 2 -27 5 -17 2 9 2 25 0 35 -3 9 -5 1 -5 -18z"/>
<path d="M2080 2730 c-9 -6 -10 -10 -3 -10 6 0 15 5 18 10 8 12 4 12 -15 0z"/>
<path d="M2676 2724 c-8 -22 -8 -26 4 -19 13 8 13 -1 -1 -24 -9 -13 -9 -23 0
-37 10 -16 11 -15 6 11 -4 23 -3 25 3 10 21 -47 30 -85 21 -91 -5 -3 -7 -10
-4 -15 3 -5 -1 -6 -9 -3 -9 3 -16 16 -16 29 0 23 -26 53 -37 42 -3 -4 2 -18
11 -31 9 -14 16 -29 16 -34 0 -4 -35 -23 -79 -40 -43 -18 -92 -44 -107 -59
-16 -15 -31 -26 -34 -26 -3 1 -7 0 -8 -2 -13 -13 30 5 55 23 52 37 141 74 170
70 27 -3 28 -5 26 -50 -3 -43 -1 -48 19 -48 21 0 21 0 2 15 -10 8 -14 15 -9
15 6 0 9 17 7 39 -4 37 -2 39 28 46 23 5 29 10 19 16 -10 6 -5 12 19 22 18 7
29 17 25 21 -4 4 4 3 17 -3 14 -5 24 -14 23 -20 -2 -6 2 -11 7 -11 6 0 10 6
10 14 0 8 16 20 36 26 32 11 39 10 68 -11 l31 -22 -20 23 -20 22 45 -7 c25 -4
51 -14 58 -23 6 -9 12 -11 12 -5 0 7 -5 15 -11 19 -8 5 -4 13 11 24 24 18 20
41 -8 39 -11 0 -12 -3 -4 -6 21 -8 13 -21 -10 -17 -20 4 -21 3 -4 -4 19 -8 18
-9 -4 -15 -27 -7 -102 12 -95 24 3 4 14 5 24 2 10 -3 22 1 27 8 5 9 2 10 -12
5 -10 -3 -4 5 14 19 17 15 32 32 32 38 0 6 -15 -3 -32 -20 -55 -52 -98 -67
-98 -35 0 11 -6 7 -19 -14 -25 -41 -34 -46 -62 -36 -19 7 -20 10 -6 15 21 8
22 30 3 46 -11 9 -15 6 -19 -18 -3 -16 -17 -42 -31 -57 -22 -26 -25 -27 -25
-9 0 11 6 31 13 43 11 20 10 29 -2 57 -9 19 -19 32 -24 29 -4 -3 -8 0 -8 5 0
17 -37 13 -44 -5z m64 -86 c0 -10 -2 -18 -5 -18 -9 0 -34 58 -27 64 9 10 32
-23 32 -46z"/>
<path d="M2856 2715 c-15 -23 -15 -24 1 -18 12 5 14 3 8 -8 -5 -8 -1 -7 12 4
11 9 22 15 24 12 3 -2 5 5 6 15 2 29 -31 25 -51 -5z"/>
<path d="M2028 2713 c7 -3 16 -2 19 1 4 3 -2 6 -13 5 -11 0 -14 -3 -6 -6z"/>
<path d="M3018 2663 c7 -3 16 -2 19 1 4 3 -2 6 -13 5 -11 0 -14 -3 -6 -6z"/>
<path d="M2171 2644 c0 -11 3 -14 6 -6 3 7 2 16 -1 19 -3 4 -6 -2 -5 -13z"/>
<path d="M2193 2620 c0 -25 2 -35 4 -22 2 12 2 32 0 45 -2 12 -4 2 -4 -23z"/>
<path d="M2007 2597 c-3 -9 -2 -40 3 -68 6 -29 11 -129 11 -223 1 -147 3 -161
10 -103 5 38 13 77 19 86 6 12 6 31 0 52 -6 19 -10 61 -10 94 -1 76 -23 187
-33 162z"/>
<path d="M1842 2570 c0 -14 2 -19 5 -12 2 6 2 18 0 25 -3 6 -5 1 -5 -13z"/>
<path d="M2221 2574 c0 -11 3 -14 6 -6 3 7 2 16 -1 19 -3 4 -6 -2 -5 -13z"/>
<path d="M2940 2565 c6 -17 6 -25 -1 -25 -6 0 -7 -4 -4 -10 9 -15 22 -12 29 5
6 16 -13 55 -26 55 -4 0 -3 -11 2 -25z"/>
<path d="M1660 2535 c0 -19 5 -35 10 -35 6 0 10 -7 10 -16 0 -9 5 -12 12 -8 8
5 9 2 5 -10 -4 -10 -3 -15 3 -11 6 4 9 -4 7 -17 -1 -15 3 -22 12 -20 9 2 11
-3 7 -13 -4 -11 -2 -14 6 -9 8 5 9 2 4 -11 -6 -16 -4 -16 10 -4 16 13 16 12 6
-8 -14 -25 -16 -45 -3 -24 7 10 15 2 35 -31 31 -53 34 -73 5 -38 -11 14 -17
18 -13 10 4 -8 14 -23 23 -33 12 -15 13 -20 2 -26 -9 -6 -10 -11 -3 -15 16 -9
31 58 29 124 -1 30 2 64 7 74 7 14 6 17 -2 12 -7 -4 -10 -2 -6 7 3 8 -1 19 -8
25 -11 8 -12 -5 -10 -71 l2 -82 -51 95 c-28 52 -60 112 -70 133 -11 20 -22 37
-24 37 -3 0 -5 -16 -5 -35z m63 -100 c-3 -9 -8 -14 -10 -11 -3 3 -2 9 2 15 9
16 15 13 8 -4z"/>
<path d="M2443 2557 c-4 -6 -1 -7 7 -2 10 6 12 4 7 -8 -9 -23 0 -22 12 1 8 14
6 19 -5 19 -8 0 -18 -5 -21 -10z"/>
<path d="M3023 2549 c4 -16 2 -19 -11 -14 -13 5 -14 3 -6 -5 17 -17 46 -8 55
18 8 20 7 21 -12 11 -15 -8 -19 -8 -15 0 4 6 2 11 -5 11 -7 0 -9 -8 -6 -21z"/>
<path d="M2786 2541 c-3 -5 8 -11 26 -13 28 -5 29 -4 13 9 -22 15 -32 16 -39
4z"/>
<path d="M2202 2510 c0 -19 2 -27 5 -17 2 9 2 25 0 35 -3 9 -5 1 -5 -18z"/>
<path d="M2420 2521 c-7 -15 -7 -19 5 -17 8 1 18 6 22 11 5 4 2 5 -6 0 -11 -6
-13 -4 -8 8 9 23 0 21 -13 -2z"/>
<path d="M1851 2514 c0 -11 3 -14 6 -6 3 7 2 16 -1 19 -3 4 -6 -2 -5 -13z"/>
<path d="M2727 2516 c-4 -10 -5 -21 -2 -24 9 -9 17 6 13 25 -3 17 -4 17 -11
-1z"/>
<path d="M2408 2471 c3 -8 1 -12 -5 -8 -6 4 -24 -20 -42 -53 -18 -33 -37 -60
-43 -60 -6 0 -9 -3 -5 -6 3 -3 1 -11 -4 -18 -5 -6 -32 -39 -59 -74 -28 -35
-50 -59 -50 -55 0 5 5 14 11 20 13 13 21 245 8 237 -5 -3 -9 -44 -9 -92 -1
-52 -6 -99 -15 -117 -7 -16 -14 -24 -14 -17 -1 6 -9 12 -18 11 -11 0 -13 -3
-5 -6 20 -8 14 -75 -13 -139 l-25 -59 5 60 c3 33 8 75 11 93 3 17 1 32 -4 32
-11 0 -20 -47 -26 -140 -3 -36 -11 -85 -18 -109 -13 -43 -13 -40 -15 80 -1 68
3 129 8 135 12 14 15 140 5 172 -13 39 -24 24 -14 -20 5 -24 7 -59 5 -78 -3
-19 -13 -87 -21 -150 -9 -63 -14 -140 -11 -170 3 -30 2 -47 -2 -38 -10 22 -9
-263 1 -318 5 -27 4 -44 -3 -49 -7 -4 -11 15 -11 57 -1 59 -2 61 -15 38 -7
-14 -10 -26 -5 -28 5 -2 6 -10 3 -18 -3 -7 -10 -11 -15 -8 -6 4 -2 -6 8 -21
13 -21 15 -28 5 -34 -9 -6 -7 -10 7 -13 11 -3 24 -3 29 1 6 3 9 63 9 136 -1
156 4 178 44 195 16 7 28 16 25 20 -3 4 17 17 43 28 47 21 46 31 -2 12 -17 -6
-27 -6 -32 2 -4 6 -3 8 4 4 5 -3 12 -1 14 6 2 6 15 12 29 14 27 3 103 22 134
35 11 4 27 10 35 12 13 5 13 6 0 6 -8 1 -51 -10 -95 -23 -44 -14 -72 -19 -62
-12 9 7 17 16 17 19 0 10 -29 1 -47 -14 -38 -33 -43 -32 -42 8 1 38 1 38 9 8
6 -23 8 -25 10 -10 2 11 2 31 1 45 -1 13 7 45 20 71 16 35 31 51 58 63 32 13
33 14 6 9 -28 -6 -29 -5 -15 12 8 10 36 28 62 40 26 12 45 25 42 28 -4 3 11 4
32 2 33 -4 35 -3 9 3 l-30 8 40 7 c22 4 69 7 105 8 45 1 56 3 36 8 l-29 6 44
36 c25 20 74 55 109 78 36 22 62 41 59 41 -31 0 -259 -130 -259 -148 0 -7 -4
-11 -8 -8 -11 7 -116 -25 -162 -49 l-35 -18 20 23 c11 13 37 39 57 59 20 20
45 52 56 71 10 19 26 35 35 35 8 0 19 4 24 8 4 5 1 7 -7 5 -13 -3 -15 7 -11
43 0 5 6 7 11 4 6 -4 10 -3 9 2 -3 19 2 34 10 28 5 -3 12 -2 15 3 2 4 -6 8
-19 8 -16 0 -21 -4 -17 -15z m138 -139 c-9 -15 -86 -65 -92 -60 -3 3 16 20 42
37 50 32 59 37 50 23z m-439 -374 c-3 -8 -6 -5 -6 6 -1 11 2 17 5 13 3 -3 4
-12 1 -19z m-13 -44 c-5 -21 -4 -25 6 -19 9 6 11 4 5 -4 -11 -19 -28 3 -20 28
9 30 17 26 9 -5z"/>
<path d="M2780 2476 c0 -3 7 -12 16 -20 21 -21 74 -21 74 0 0 8 -4 12 -10 9
-5 -3 -20 0 -32 6 -22 12 -22 11 -8 -7 15 -18 14 -18 -12 -1 -16 10 -28 15
-28 13z"/>
<path d="M1891 2454 c0 -11 3 -14 6 -6 3 7 2 16 -1 19 -3 4 -6 -2 -5 -13z"/>
<path d="M1921 2424 c0 -11 3 -14 6 -6 3 7 2 16 -1 19 -3 4 -6 -2 -5 -13z"/>
<path d="M1911 2388 c0 -9 -4 -25 -7 -35 -5 -17 -5 -17 6 0 6 10 9 25 7 35 -4
15 -5 15 -6 0z"/>
<path d="M1922 2344 c-7 -26 -11 -49 -8 -51 6 -6 28 76 24 88 -2 6 -9 -11 -16
-37z"/>
<path d="M1861 2334 c0 -11 3 -14 6 -6 3 7 2 16 -1 19 -3 4 -6 -2 -5 -13z"/>
<path d="M1972 2235 c0 -76 3 -113 8 -100 11 25 11 161 0 195 -5 16 -8 -20 -8
-95z"/>
<path d="M1940 2313 c-5 -26 -5 -111 0 -103 3 5 6 -26 6 -68 0 -42 -1 -67 -4
-54 -2 12 -8 22 -14 22 -5 0 -8 7 -5 14 4 11 1 13 -11 9 -14 -6 -15 -4 -4 9
10 12 9 20 -7 40 -12 14 -21 45 -24 74 -2 34 -4 23 -5 -33 -1 -46 2 -83 7 -83
13 0 48 -59 56 -95 5 -24 4 -27 -5 -15 -10 13 -11 12 -6 -3 3 -10 6 -21 6 -23
0 -3 4 -3 9 0 5 3 9 -4 9 -17 0 -59 16 -167 25 -167 6 0 7 15 3 38 -4 20 -9
111 -12 202 -4 147 -18 286 -24 253z m-45 -132 c3 -5 2 -12 -3 -15 -5 -3 -9 1
-9 9 0 17 3 19 12 6z"/>
<path d="M2100 2315 c0 -5 5 -17 10 -25 5 -8 10 -10 10 -5 0 6 -5 17 -10 25
-5 8 -10 11 -10 5z"/>
<path d="M2181 2284 c0 -11 3 -14 6 -6 3 7 2 16 -1 19 -3 4 -6 -2 -5 -13z"/>
<path d="M1842 2255 c0 -16 2 -22 5 -12 2 9 2 23 0 30 -3 6 -5 -1 -5 -18z"/>
<path d="M2057 2273 c-4 -3 -7 -18 -6 -32 1 -26 1 -25 10 3 9 31 7 41 -4 29z"/>
<path d="M2681 2270 c9 -5 32 -10 52 -12 21 -1 37 -4 37 -7 0 -3 -10 -15 -22
-28 -14 -15 -17 -22 -7 -18 13 5 56 64 47 65 -58 8 -120 7 -107 0z"/>
<path d="M2718 2243 c7 -3 16 -2 19 1 4 3 -2 6 -13 5 -11 0 -14 -3 -6 -6z"/>
<path d="M2433 2233 c9 -2 25 -2 35 0 9 3 1 5 -18 5 -19 0 -27 -2 -17 -5z"/>
<path d="M2101 2215 c-1 -11 -4 -31 -7 -45 -5 -22 -4 -23 6 -7 6 10 9 30 7 45
-3 18 -5 20 -6 7z"/>
<path d="M2043 2175 c0 -22 2 -30 4 -17 2 12 2 30 0 40 -3 9 -5 -1 -4 -23z"/>
<path d="M2670 2190 c-35 -7 -35 -7 -5 -9 17 0 37 4 45 9 17 11 11 11 -40 0z"/>
<path d="M2340 2175 c-36 -7 -59 -13 -52 -14 8 0 12 -7 9 -13 -2 -7 -10 -12
-16 -10 -6 1 -10 -3 -8 -10 1 -7 -5 -12 -13 -13 -8 0 -14 -6 -12 -13 1 -7 -2
-12 -7 -12 -4 0 -20 -17 -33 -38 -21 -30 -23 -40 -12 -50 8 -7 15 -8 19 -2 3
6 1 10 -4 10 -6 0 -11 5 -11 10 0 15 81 101 90 95 4 -2 18 7 30 20 27 28 49
34 29 8 -8 -11 -3 -9 11 4 14 12 36 26 50 32 33 13 10 12 -70 -4z"/>
<path d="M2498 2173 c6 -2 18 -2 25 0 6 3 1 5 -13 5 -14 0 -19 -2 -12 -5z"/>
<path d="M2558 2173 c12 -2 30 -2 40 0 9 3 -1 5 -23 4 -22 0 -30 -2 -17 -4z"/>
<path d="M2032 2105 c0 -16 2 -22 5 -12 2 9 2 23 0 30 -3 6 -5 -1 -5 -18z"/>
<path d="M1880 2114 c0 -6 7 -19 16 -30 14 -18 14 -18 3 6 -14 31 -19 36 -19
24z"/>
<path d="M1864 2015 c0 -55 1 -76 3 -47 2 29 2 74 0 100 -2 26 -3 2 -3 -53z"/>
<path d="M2249 2063 c-13 -16 -12 -17 4 -4 9 7 17 15 17 17 0 8 -8 3 -21 -13z"/>
<path d="M1832 2040 c0 -19 2 -27 5 -17 2 9 2 25 0 35 -3 9 -5 1 -5 -18z"/>
<path d="M2289 2053 c-13 -16 -12 -17 4 -4 9 7 17 15 17 17 0 8 -8 3 -21 -13z"/>
<path d="M2398 1983 c12 -2 30 -2 40 0 9 3 -1 5 -23 4 -22 0 -30 -2 -17 -4z"/>
<path d="M2517 1952 c18 -10 40 -28 50 -41 12 -18 13 -22 2 -16 -8 4 -4 -2 9
-14 12 -12 22 -31 22 -43 0 -21 0 -21 -22 -2 l-21 19 18 -27 c22 -36 35 -35
35 1 0 52 -27 99 -70 121 -48 24 -68 26 -23 2z"/>
<path d="M1833 1910 c0 -25 2 -35 4 -22 2 12 2 32 0 45 -2 12 -4 2 -4 -23z"/>
<path d="M2348 1933 c7 -3 16 -2 19 1 4 3 -2 6 -13 5 -11 0 -14 -3 -6 -6z"/>
<path d="M2433 1933 c9 -2 25 -2 35 0 9 3 1 5 -18 5 -19 0 -27 -2 -17 -5z"/>
<path d="M2280 1920 c34 -11 60 -11 35 0 -11 5 -29 8 -40 8 -16 0 -15 -2 5 -8z"/>
<path d="M2498 1923 c7 -3 16 -2 19 1 4 3 -2 6 -13 5 -11 0 -14 -3 -6 -6z"/>
<path d="M2220 1916 c0 -2 9 -6 20 -9 11 -3 18 -1 14 4 -5 9 -34 13 -34 5z"/>
<path d="M1871 1894 c0 -11 3 -14 6 -6 3 7 2 16 -1 19 -3 4 -6 -2 -5 -13z"/>
<path d="M2480 1896 c0 -2 7 -7 16 -10 8 -3 12 -2 9 4 -6 10 -25 14 -25 6z"/>
<path d="M1881 1854 c0 -11 3 -14 6 -6 3 7 2 16 -1 19 -3 4 -6 -2 -5 -13z"/>
<path d="M1841 1824 c0 -11 3 -14 6 -6 3 7 2 16 -1 19 -3 4 -6 -2 -5 -13z"/>
<path d="M1978 1794 c-5 -4 -8 -19 -8 -33 0 -18 3 -22 11 -14 6 6 9 21 7 33
-1 12 -6 18 -10 14z"/>
<path d="M1861 1744 c0 -11 3 -14 6 -6 3 7 2 16 -1 19 -3 4 -6 -2 -5 -13z"/>
<path d="M1988 1710 c-7 -24 -3 -38 8 -28 3 4 4 17 2 30 l-3 23 -7 -25z"/>
<path d="M1930 1671 c0 -6 4 -13 10 -16 6 -3 7 1 4 9 -7 18 -14 21 -14 7z"/>
<path d="M1997 1651 c-4 -17 -3 -21 5 -13 5 5 8 16 6 23 -3 8 -7 3 -11 -10z"/>
<path d="M1920 1616 c0 -2 8 -10 18 -17 15 -13 16 -12 3 4 -13 16 -21 21 -21
13z"/>
<path d="M3612 3888 l27 -23 -75 -99 c-41 -55 -74 -103 -74 -108 0 -28 35 5
100 92 62 84 76 98 89 87 8 -7 12 -7 9 -2 -4 6 -28 25 -55 44 -26 18 -36 22
-21 9z"/>
<path d="M3700 3826 c0 -2 8 -10 18 -17 15 -13 16 -12 3 4 -13 16 -21 21 -21
13z"/>
<path d="M1207 3744 c-6 -7 153 -202 166 -203 4 -1 22 14 40 32 18 17 21 22 6
9 l-26 -23 -82 95 c-79 93 -91 103 -104 90z"/>
<path d="M1482 3665 c0 -16 2 -22 5 -12 2 9 2 23 0 30 -3 6 -5 -1 -5 -18z"/>
<path d="M1213 1437 c-42 -36 -68 -66 -63 -71 5 -5 24 4 45 23 20 17 41 28 47
25 6 -4 8 -3 5 4 -4 5 7 22 24 37 31 25 32 25 53 8 16 -14 16 -12 -3 10 -14
15 -27 27 -30 26 -3 0 -38 -28 -78 -62z"/>
<path d="M3667 1403 c-3 -5 21 -15 55 -21 42 -8 74 -21 99 -42 21 -16 40 -26
43 -22 7 12 -59 75 -81 79 -78 12 -111 14 -116 6z"/>
<path d="M1299 1334 c-38 -37 -66 -71 -63 -76 6 -9 145 110 152 130 9 28 -25
7 -89 -54z"/>
<path d="M1390 1345 c-17 -18 -19 -24 -8 -20 16 6 18 -5 20 -106 2 -78 6 -108
13 -98 6 8 8 61 5 132 l-5 119 -25 -27z"/>
<path d="M3599 1333 c-13 -15 -12 -15 7 -5 45 24 84 -39 49 -78 -14 -16 -11
-18 51 -24 40 -4 71 -3 77 3 6 6 -11 12 -51 17 -59 6 -60 7 -50 30 17 37 -4
74 -41 74 -16 0 -35 -7 -42 -17z"/>
<path d="M3554 1299 c-7 -12 126 -160 138 -153 11 7 1 20 -74 101 -32 33 -61
57 -64 52z"/>
<path d="M1304 1248 l-29 -33 33 29 c17 17 32 31 32 33 0 8 -8 1 -36 -29z"/>
<path d="M1496 1164 c-31 -42 -56 -79 -56 -83 0 -3 10 -12 23 -20 19 -13 21
-12 10 1 -10 12 -8 21 13 49 14 19 29 33 33 32 4 -1 8 4 8 10 0 17 33 67 45
67 5 0 6 5 3 10 -12 19 -24 9 -79 -66z"/>
<path d="M1474 1198 l-29 -33 33 29 c30 28 37 36 29 36 -2 0 -16 -15 -33 -32z"/>
<path d="M3456 1221 c-3 -5 22 -45 56 -89 49 -64 65 -79 76 -70 11 10 11 13
-1 20 -8 4 -38 39 -67 78 -55 74 -56 75 -64 61z"/>
<path d="M3355 1150 c-7 -12 91 -170 106 -170 16 0 10 13 -45 98 -32 50 -57
79 -61 72z"/>
<path d="M3332 1110 c0 -14 2 -19 5 -12 2 6 2 18 0 25 -3 6 -5 1 -5 -13z"/>
<path d="M3619 1093 c-13 -16 -12 -17 4 -4 9 7 17 15 17 17 0 8 -8 3 -21 -13z"/>
<path d="M1741 1049 c-29 -23 -49 -44 -46 -47 3 -3 11 1 18 9 6 8 23 23 36 34
l23 20 -5 -92 c-4 -53 -2 -95 3 -98 5 -3 12 4 14 17 7 34 18 198 13 198 -2 0
-28 -19 -56 -41z"/>
<path d="M3222 1057 c3 -13 138 -140 143 -135 1 2 0 21 -3 43 -4 30 -7 35 -12
20 -6 -17 -12 -14 -62 33 -56 53 -72 62 -66 39z"/>
<path d="M3341 1044 c0 -11 3 -14 6 -6 3 7 2 16 -1 19 -3 4 -6 -2 -5 -13z"/>
<path d="M1862 963 c-17 -43 -33 -86 -37 -95 -5 -12 -2 -18 7 -18 9 0 20 17
27 40 6 22 16 40 21 40 4 0 16 -24 25 -52 10 -29 21 -57 26 -62 17 -19 19 2 4
44 -20 56 -19 60 10 60 29 0 59 39 49 64 -3 9 -16 21 -28 28 -17 9 -19 8 -8
-3 15 -17 16 -51 0 -67 -14 -14 -64 -16 -72 -3 -4 5 3 30 14 55 15 36 16 46 6
46 -8 0 -27 -33 -44 -77z"/>
<path d="M3100 1013 c1 -5 32 -42 70 -83 l70 -75 -1 60 c-1 47 -3 53 -8 27
l-6 -33 -55 56 c-51 52 -71 65 -70 48z"/>
<path d="M1654 978 l-19 -23 23 19 c21 18 27 26 19 26 -2 0 -12 -10 -23 -22z"/>
<path d="M2988 984 c-11 -10 56 -194 70 -194 8 0 12 6 9 13 -2 6 -17 51 -33
100 -27 83 -33 94 -46 81z"/>
<path d="M2095 958 c-12 -37 -45 -166 -45 -176 0 -7 4 -12 9 -12 7 0 61 173
61 195 0 11 -21 4 -25 -7z"/>
<path d="M2962 868 c16 -57 27 -115 25 -130 -3 -22 -1 -25 10 -17 7 7 13 22
13 35 0 41 -53 214 -66 214 -8 0 -2 -33 18 -102z"/>
<path d="M2730 923 c63 -10 72 -15 86 -48 21 -52 18 -83 -15 -116 -16 -16 -25
-29 -19 -29 5 0 23 13 39 29 65 66 20 173 -73 170 -24 -1 -32 -3 -18 -6z"/>
<path d="M2348 909 c-6 -19 56 -199 68 -199 9 0 5 23 -12 78 -13 42 -27 89
-30 105 -7 27 -19 36 -26 16z"/>
<path d="M2654 903 c2 -10 7 -43 11 -73 10 -87 16 -110 29 -110 10 0 10 15 0
73 -7 39 -13 84 -14 100 0 18 -5 27 -16 27 -10 0 -14 -6 -10 -17z"/>
<path d="M2470 894 c0 -10 36 -55 80 -99 104 -104 103 -75 0 34 -55 57 -80 78
-80 65z"/>
<path d="M2315 850 c-9 -16 -13 -30 -11 -30 3 0 12 14 21 30 9 17 13 30 11 30
-3 0 -12 -13 -21 -30z"/>
<path d="M2280 790 c-6 -11 -8 -20 -6 -20 3 0 10 9 16 20 6 11 8 20 6 20 -3 0
-10 -9 -16 -20z"/>
<path d="M2323 803 c9 -2 23 -2 30 0 6 3 -1 5 -18 5 -16 0 -22 -2 -12 -5z"/>
<path d="M2728 723 c7 -3 16 -2 19 1 4 3 -2 6 -13 5 -11 0 -14 -3 -6 -6z"/>
</g>
</svg>
